<?xml version="1.0" encoding="UTF-8"?>
<!DOCTYPE svg PUBLIC "-//W3C//DTD SVG 1.1//EN" "http://www.w3.org/Graphics/SVG/1.1/DTD/svg11.dtd">
<!-- Creator: CorelDRAW -->
<svg xmlns="http://www.w3.org/2000/svg" xml:space="preserve" width="44.5908mm" height="36.3011mm" version="1.1" style="shape-rendering:geometricPrecision; text-rendering:geometricPrecision; image-rendering:optimizeQuality; fill-rule:evenodd; clip-rule:evenodd"
viewBox="0 0 61.4 49.98"
 xmlns:xlink="http://www.w3.org/1999/xlink"
 xmlns:xodm="http://www.corel.com/coreldraw/odm/2003">
 <defs>
  <style type="text/css">
   <![CDATA[
    .str0 {stroke:white;stroke-width:0.28;stroke-miterlimit:22.9256}
    .fil0 {fill:black}
   ]]>
  </style>
 </defs>
 <g id="Capa_x0020_1">
  <metadata id="CorelCorpID_0Corel-Layer"/>
  <g id="_2919154599312">
   <path class="fil0 str0" d="M49.77 43.09c-0.82,0 -1.47,-0.06 -2.23,-0.06 -11.66,0.01 -23.27,-0.12 -34.95,-0.12l-1.73 3.04 20.2 0 0 3.78c1.31,0 2.41,0.06 3.72,0.06l11.34 0c1.31,0 2.41,0.06 3.72,0.06 3.78,0 7.56,0 11.34,0 -0.59,-1.11 -2.46,-4.06 -3.26,-5.41l-4.23 -6.99c-3.67,-6.17 -7.55,-12.39 -11.25,-18.56l-7.52 -12.43c-0.34,-0.56 -3.62,-6.06 -3.79,-6.18l0 11.53c0,1.22 -0.2,1.38 0.24,2.11l4.65 7.37c1.01,1.69 2.33,3.62 3.35,5.32 0.47,0.79 1.01,1.56 1.49,2.35 0.11,0.18 0.23,0.37 0.36,0.57 0.13,0.21 0.25,0.41 0.38,0.61 1.22,1.84 2.5,4.05 3.72,5.88 0.26,0.38 0.49,0.79 0.74,1.18l3.72 5.89 0 0z"/>
   <path class="fil0 str0" d="M31.24 0.77l0.46 0.72c0.17,0.28 0.31,0.5 0.47,0.77l13.9 22.97c0.63,1.04 1.22,2.02 1.84,3.05l1.85 3.04c3.04,5.11 6.23,10.22 9.27,15.33l1.88 3.08c-1.28,0 -2.36,-0.06 -3.66,-0.06l-11.22 0c-1.29,0 -2.37,-0.06 -3.66,-0.06l-11.22 0 0 -3.78 -20.08 0c0.28,-0.42 0.52,-0.92 0.79,-1.38 0.28,-0.47 0.53,-0.98 0.82,-1.41 1.53,0 2.99,0.06 4.59,0.06 10.92,0 21.78,0.12 32.72,0.12 -0.21,-0.4 -0.48,-0.75 -0.72,-1.14l-4.07 -6.47c-0.14,-0.22 -0.24,-0.39 -0.38,-0.61 -1.53,-2.27 -3.24,-5.19 -4.8,-7.6l-2.94 -4.68c-1.16,-1.97 -2.84,-4.45 -4.1,-6.5 -0.13,-0.21 -0.23,-0.37 -0.36,-0.57 -0.14,-0.22 -0.24,-0.39 -0.38,-0.61 -0.26,-0.39 -0.47,-0.77 -0.72,-1.14 -0.13,-0.19 -0.29,-0.34 -0.31,-0.62l0 -4.83c0,-2.56 0,-5.12 0,-7.68l-0 0z"/>
   <path class="fil0 str0" d="M0.19 49.72l30.3 0 0 -3.16 -20.82 0 12.96 -20.56c1.36,-2.16 3.19,-4.97 4.45,-7.07l3.23 -5.13c0.24,-0.36 0.17,-0.33 0.17,-0.88l-0 -12.64c-0.13,0.1 -0.4,0.57 -0.5,0.74 -0.15,0.25 -0.29,0.51 -0.47,0.77l-2.83 4.61c-4.33,7.19 -8.95,14.46 -13.25,21.64l-3.79 6.19c-2.45,4.09 -5.16,8.3 -7.58,12.38l-1.41 2.31c-0.16,0.27 -0.34,0.52 -0.49,0.81l0 0z"/>
   <path class="fil0 str0" d="M9.43 46.68l20.94 0 -0.06 2.91 -29.87 0 2.79 -4.53c0.32,-0.52 0.62,-1.02 0.94,-1.54 3.63,-6.07 7.57,-12.25 11.22,-18.33 3.97,-6.6 8.15,-13.23 12.14,-19.84l2.59 -4.23c0.04,-0.06 0.08,-0.13 0.12,-0.19 0.01,-0.01 0.02,-0.03 0.03,-0.04l0.11 -0.14c0,2.77 0,5.54 0,8.3 0,1.34 0.06,2.84 0,4.15 -0.02,0.36 -0.47,0.9 -0.74,1.36 -1.12,1.87 -2.55,3.94 -3.64,5.78l-2.82 4.49c-0.28,0.44 -0.53,0.84 -0.82,1.29l-9.29 14.75c-0.15,0.22 -0.28,0.44 -0.41,0.65l-3.23 5.14 0 0z"/>
  </g>
 </g>
</svg>
