<?xml version="1.0" encoding="UTF-8"?>
<!DOCTYPE svg PUBLIC "-//W3C//DTD SVG 1.1//EN" "http://www.w3.org/Graphics/SVG/1.1/DTD/svg11.dtd">
<!-- Creator: CorelDRAW -->
<svg xmlns="http://www.w3.org/2000/svg" fill-opacity="0.1" xml:space="preserve" width="422.709mm" height="207.008mm" version="1.1" style="shape-rendering:geometricPrecision; text-rendering:geometricPrecision; image-rendering:optimizeQuality; fill-rule:evenodd; clip-rule:evenodd"
viewBox="0 0 26617.21 13034.92"
 xmlns:xlink="http://www.w3.org/1999/xlink"
 xmlns:xodm="http://www.corel.com/coreldraw/odm/2003">
 <defs>
  <style type="text/css">
   <![CDATA[
    .fil6 {fill:#063649}
    .fil1 {fill:#13BBC6}
    .fil0 {fill:#144B6C}
    .fil10 {fill:#1898A9}
    .fil11 {fill:#24211D}
    .fil12 {fill:#53CACE}
    .fil9 {fill:#7A7D7D}
    .fil5 {fill:#A6ABAB}
    .fil3 {fill:#E2CFBE}
    .fil7 {fill:#F05B30}
    .fil8 {fill:#FAF2D1}
    .fil2 {fill:#FCFBFA}
    .fil4 {fill:#FDBC2C}
   ]]>
  </style>
 </defs>
 <g id="Capa_x0020_1">
  <metadata id="CorelCorpID_0Corel-Layer"/>
  <g id="_1245187414688">
   <path class="fil0" d="M12963.11 2326.43c104.82,-90.64 786.31,-47.93 927.09,-48.01l2803.09 3.19c100.69,24.82 41.82,-9.98 98.72,53.59 -76.73,159.49 -168.7,109.34 -369.7,106.88l-3045.37 0.37c-434.63,2.87 -374.83,48.29 -413.83,-116.01zm3938.2 -309.89l-3353.21 2.1c-581.15,0.16 -627.54,75.89 -651.26,-136.94 139.08,-56.29 3331.71,-21.82 4048.07,-19.36l-43.6 154.2zm-6371.07 -581.44l1957.26 3.11c79.25,116.58 206.89,806.84 213.07,996.96l-1756.91 5.58c-79.08,-274.98 -390.87,-760.37 -413.42,-1005.65zm6524.49 152.14c-325.65,38.75 -4125.37,27.11 -4211.4,-13.46l-16.57 -130.6 4269.42 -5.82 -41.46 149.87zm-4360.38 -868.78c138.68,-49.66 4226.75,-33.74 4701.23,-15.76 -16.21,232.79 -177.11,160.63 -426.19,158.81l-4075.55 4.97c-196.3,-1.05 -184.87,22.74 -199.5,-148.02zm4810.81 -283.34c-726.66,56.65 -3519.08,4.53 -4679.69,9.09 -195.98,0.77 -182.93,27.4 -206.32,-136.29 182.97,-86.64 2057.51,-29.26 2434.28,-28.77 799.24,1.05 1704.83,-40.33 2490.49,5.25l-38.75 150.72zm2401.1 -435.12l-7687.52 0 156.9 859.93 -2175.55 -0.69c-87.68,-193.03 -319.71,-655.71 -359.27,-859.25l-2035.74 0 1577.38 2861.16 8937.67 -1.37 1586.11 -2859.78z"/>
   <path class="fil1" d="M11803.07 12858.33l3174.15 0.13 1944.45 5.29c44.08,-269.08 -110.07,-1088.88 -121.75,-1436.8l55.48 -25.66 10.47 -289.33 97.58 -20.24c-20.45,-274.33 -133.95,-209.15 -283.55,-367.43l-689.24 -1193.62 -4467.46 -1.86 -327.79 401.33c-50.8,60.2 -53.3,60.08 -92.41,112.98 -166.69,225.4 -247.42,217.11 -481.35,391.64 30.71,130.08 112.82,79.12 30.91,556.59 -76.08,443.96 -354.26,1504.56 -360.6,1814.13 263.62,-7.47 528.62,-5.3 792.85,-4.85 94.96,0.16 676.39,-23.48 718.26,57.7z"/>
   <path class="fil2" d="M14605.51 8644.19l700.19 -3.56 -6.79 694.82 -686.01 -2.87 -7.39 -688.39zm-1069.08 6.27l689.97 -7.6 -4.52 685.77 -687.11 1.94 1.66 -680.11zm1879.63 -819.12l696.08 3.15 1.05 690.3 -701.13 7.44 4 -700.89zm-1886.22 -2.34l692.8 7.56 0.48 682.7 -695.95 13.49 2.67 -703.75zm-888.75 -0.81l694.22 7.68 1.13 685.97 -700.96 10.91 5.62 -704.56zm-886.76 1.9l693.77 4.93 -1.01 690.58 -695.46 6.43 2.7 -701.94zm5511.05 -791.96l683.75 -9.77 10.5 688.71 -690.18 -1.37 -4.08 -677.57zm-1880.2 -7.63l686.05 1.01 -6.46 687.35 -684.72 -10.26 5.13 -678.09zm-814.39 -1.5l674.49 -0.24 15.24 690.9 -678.29 -0.81 -11.44 -689.85zm-1686.33 -0.04l1337.12 4.4 -7.2 685.29 -1337.07 -7.2 7.15 -682.49zm-1125.81 1.61l686.5 2.55 -8.69 686.21 -678.49 -13.05 0.69 -675.71zm5496.87 -820.49l705.21 5.62 -1.41 693 -695.59 4.2 -8.2 -702.82zm-1069.61 3.43l701.29 -8.85 -6.02 706.34 -690.38 -4.93 -4.89 -692.56zm-816.36 -4.57l704.11 11.28 -2.14 687.54 -694.46 7.97 -7.51 -706.79zm-805.7 2.79l699.26 -0.65 -4.12 698.58 -689.16 1.33 -5.98 -699.27zm-1038.45 -2.71l697.89 13.42 -1.45 684.19 -691.06 8.85 -5.37 -706.46zm-891.69 0.53l703.83 8.85 -4.89 689.24 -690.7 7.84 -8.24 -705.93zm-887.45 -0.08l702.01 9.94 -3.56 688.77 -689.4 4.89 -9.05 -703.59zm-922.64 0.24l702.94 7.92 -1.53 690.66 -694.99 6.91 -6.42 -705.49zm-882.56 1.62l704.28 -1.82 -5.3 700.36 -691.83 2.1 -7.15 -700.64zm-174.72 1718.45c20.33,77.02 19.96,-42.55 61.26,-110.4 90.27,-148.42 85.34,-19.72 109.58,-222.01 19.12,-159.45 -7.92,-393.05 1.74,-563.65 91.44,-44.69 499.21,-55.12 631.18,-29.74 102.27,19.68 66.39,17.34 87,28.77l-16.37 559.77c115.09,44.37 94.19,33.06 163.77,111.37l12.57 -672.51c115.21,-50.03 602,-76.05 719.47,10.87l-13.78 674.82 -187.05 18.63 -36.01 97.75 225.36 3.64 1.17 673.28c381.49,289.45 1514.18,-23.35 1890.06,139.41l-2.39 683.27c-489.26,-0.04 -1588.05,-57.3 -1999.76,18.47 -96.13,25.45 -128.83,85.1 -171.17,154l4716.34 8.36 -120.7 -169.47 -413.34 -11.64 -12.4 -696.6 701.77 5.21 15.56 373.45 59.64 48.25 -0.04 -399.96c64.85,-47.24 23.39,-10.58 161.1,-47.04l95.85 -28.77 -15.11 -821.02c-67.85,-16.52 -173.55,5.06 -254.09,-64.49l5.65 -654.9c6.95,-6.18 19.07,-22.5 23.56,-14.95l681.08 -5.38 10.99 602.81c-36.01,261.12 -58.63,-112.13 -47.19,581.52l10.22 307.14c0.04,0.12 -61.66,-31.03 43.84,110.36 -8.04,-185.8 -12.89,-255.1 48.16,-396.08 106.16,-22.03 166.56,-37.34 289.29,-11.56l8.12 -311.83c13.78,-86.55 2.75,-38.95 21.54,-76.57l688.19 3.11 -2.51 681.32c-160.58,224.35 128.7,60.25 170.93,36.33l-1.61 -2521.96 -4211.07 -10.99 -4.89 -1019.14 -3161.18 -13.05 -0.16 -1843.14 876.62 -2.63 4474.38 -8.53 2408.54 6.38 1737.68 -3140.05 -341.45 0 -1586.11 2859.78 -8937.67 1.37 -1577.38 -2861.16 -342.5 0 1737.27 3140.7 1401.2 3.44 3.11 2005.74 3162.03 0 -2.87 871.33 -4002.73 2.71 5.7 1905.86z"/>
   <path class="fil2" d="M25191.73 7474.33c-166.32,58.23 -2607.22,38.63 -2953.97,19.92l8.49 -154.69 2944.11 9.54 1.37 125.22zm-2629.97 -1342.24l2320.13 -1.7 -22.35 419.64 -2299.28 -5.62 1.5 -412.32zm1580.57 4550.46c-227.26,-114.31 -552.26,-221.28 -683.31,-418.83 -3.56,-189.87 458.43,-1076.4 565.23,-1284.42 -72.05,-88.5 8.16,-29.01 -110.6,-58.88l-341.33 -3.35c-148.26,0.04 -296.52,-0.37 -444.78,-0.25 -202.49,0.16 -734.78,43.52 -884.41,-21.54l-2.51 -102.72c160.86,-98.27 1549.82,-11.52 1882.87,-39.52 74.03,-111.93 102.19,-164.95 119.81,-283.14 -204.34,-141.11 -1707.66,81.75 -2001.87,-53.66l0.85 -102.64c204.26,-100.25 1717.16,31.36 2117.07,-40.16l136.66 -311.14c-309.12,23.88 -2111.21,67.44 -2255.71,-25.06l4.28 -102.59c155.37,-65.95 2010.8,-12.93 2368.86,-27.16 255.54,-149.43 720.48,276.03 1010.45,332.88 90.39,-122.64 13.46,31.4 16.89,-83.16l-6.26 -941.03c-1.45,-311.83 28.16,-782.83 -0.77,-1068.68 -54.63,-104.21 -22.51,-308.44 -29.66,-446.15l-3783.79 4.73 1.29 4799.38 2320.73 277.08z"/>
   <path class="fil3" d="M11165.14 8652.4l221.81 6.59c-48.33,73.14 -63.93,96.21 -128.01,169.88 -65.51,75.32 -49.34,77.38 -140.78,152.99l46.99 -329.45zm-304.48 -951.58c-68.24,-141.67 -17.41,-490.6 -34.71,-676.96l287.06 3.84c-57.02,56.97 -102.24,77.9 -133.06,161.43 -38.87,105.42 -39.92,431.96 -119.29,511.69zm7097.84 815.96c-61.7,-26.67 -18.87,-13.17 -59.08,-41.54 -156.99,-110.6 -371.75,-149.55 -468.25,52.49 -133.47,-118.47 -165.68,-461.78 -158.36,-695.38 -18.79,37.62 -7.76,-9.98 -21.54,76.57l-8.12 311.83c-122.73,-25.78 -183.13,-10.47 -289.29,11.56 -61.05,140.99 -56.21,210.28 -48.16,396.08 -105.5,-141.39 -43.8,-110.24 -43.84,-110.36l-10.22 -307.14c-11.44,-693.65 11.19,-320.4 47.19,-581.52l-10.99 -602.81 -681.08 5.38c-4.49,-7.56 -16.61,8.77 -23.56,14.95l693.85 -25.9 16.69 710.34c-11.11,-6.18 -22.11,-15.24 -31.2,-21.91l-152.09 -109.18c-269.24,-112.42 -109.75,182.48 -532.91,101.55 80.54,69.54 186.24,47.96 254.09,64.49l15.11 821.02 -95.85 28.77c-137.71,36.45 -96.25,-0.2 -161.1,47.04l249.64 3.96 3.8 648.64c-183.94,-1.09 -181.68,-105.02 -253.4,-252.63l-59.64 -48.25c-281.73,0.77 -306.3,80.78 -291.59,329.57l120.7 169.47 -4716.34 -8.36c42.35,-68.9 75.04,-128.54 171.17,-154 15.52,-96.05 51.31,-121.31 107,-192.59 44.25,-56.69 71.81,-90.03 123.65,-148.58 202.4,-228.79 112.58,-285.61 158.48,-360.04l1613.02 -0.53c-375.88,-162.76 -1508.57,150.04 -1890.06,-139.41l-340.12 6.3 113.59 -683.22 36.01 -97.75c-22.18,-157.11 16.85,-241.32 35.36,-395.6 30.55,-254.25 -63.77,-159.37 -135.17,-315.02l300.64 17.17c-117.47,-86.92 -604.26,-60.9 -719.47,-10.87l-12.57 672.51c-69.58,-78.31 -48.69,-67 -163.77,-111.37 -253.28,7.27 -182.6,73.67 -314.74,114.48 -87.85,27.11 -265.64,3.04 -368.12,6.79l-6.47 -686.09 705.69 5.05c-20.61,-11.44 15.28,-9.09 -87,-28.77 -131.98,-25.38 -539.74,-14.95 -631.18,29.74 -9.65,170.61 17.38,404.21 -1.74,563.65 -24.24,202.29 -19.31,73.58 -109.58,222.01 -41.3,67.84 -40.94,187.41 -61.26,110.4 -410.87,-287.83 -385.25,175.01 -462.75,892.25 -33.18,306.9 -144.26,742.3 -26.55,1030.01 89.18,218.08 70.06,77.87 34.46,315.34l1097.29 247.7c62.84,-234.41 148.5,-4.8 495.45,-468 373.09,-498.12 277.16,-416.74 618.98,-418.27l4467.46 1.86 689.24 1193.62c149.59,158.28 263.1,93.1 283.55,367.43 311.14,-19.23 1002.29,-140.09 1255.13,-41.29 -79.85,-100.3 -298.01,-12.89 -46.96,-473.95 172.55,-316.88 120.21,-1822.38 65.14,-1922.14 -73.42,-132.94 -84.45,0.84 -88.05,-269.93 -5.62,-425.22 44.05,-2220.44 -20.89,-2353.26l1.61 2521.96c-42.23,23.92 -331.51,188.02 -170.93,-36.33z"/>
   <path class="fil2" d="M24131.29 2276.89l850.92 -0.61 2.51 851.12 -849.35 5.74 -4.08 -856.25zm-1103.15 1.74l842.84 13.9 1.9 833.67 -840.01 -7.72 -4.73 -839.84zm-1159.84 -2.42l844.09 6.3 3.07 843.84 -845.18 7.92 -1.98 -858.07zm2355.2 -152.55c-64.08,-11.23 -43.96,-15.03 -77.9,-36.69 50.47,-48.33 -76.41,-71 176.98,-72.69l582.33 2.38c65.46,10.99 40.16,13.1 75.4,36.09 -48.16,98.44 -2.42,70.96 -173.84,74.51l-582.97 -3.6zm-347.75 -36.69c-86.11,59.28 -732.6,70.8 -856.37,0 17.05,-109.55 262.01,-71.6 381.86,-71.32 362.75,0.93 424.93,-49.13 474.52,71.32zm-1161.45 0c-70.96,46.51 -705.69,77.1 -828.57,0 70.15,-69.34 -180.74,-69.18 420.73,-70.55 420.85,-0.93 360.36,-48.61 407.84,70.55zm-270.98 -490.15c-578.97,-1.62 -547.13,63.2 -526.56,-244.15 239.58,-61.26 2668.16,-38.59 3065.29,-17.7l-18.99 262.94 -2519.74 -1.09zm-1201.58 2210.45c724.61,20.04 1470.18,2.51 2193.73,2.51 376.12,0 1928.16,46.8 2170.73,-20.12l2.02 -3021.86 -4360.02 -10.99 -6.47 3050.46z"/>
   <path class="fil4" d="M3843.88 8834.96l731.35 -1.05 3.15 756.56 -727.72 1.78c-47.08,-153.67 -36.2,-590.41 -6.79,-757.29zm-1001.52 3.92l739.06 -4.08 16.49 746.63 -754.38 4.73 -1.17 -747.28zm-993.6 -0.04l743.96 -6.75 12.61 748.93 -751.76 5.53 -4.8 -747.72zm1979.08 -433.83l753.29 1.57 0.53 184.55 -748.73 12.12 -5.09 -198.24zm-987.62 148.09l1.58 -138.27 752.08 -7.35 4.97 164.21c-114.56,41.14 -238.81,28.33 -382.95,29.87 -137.84,1.49 -278.17,27.4 -375.68,-48.45zm-990.97 -140.34c126.55,-12.44 648.55,-44.81 754.06,37.71l1.74 102.63c-114.44,86.52 -310.5,46.84 -450.07,48.13 -274.62,2.55 -305.94,57.26 -305.73,-188.46zm197.39 -407.07c63.19,-137.31 84.17,-75.89 519.29,-75.97l1507.92 -2.75c170.16,-1.13 183.73,-36.04 239.82,78.72 -57.86,132.78 -100.54,77.87 -516.09,77.42l-1507.75 3.15c-290.74,3.6 -191.22,-17.25 -243.18,-80.57zm-190.65 -1744.39l2726.92 9.29 -11.76 1104.2 -2719.68 -1.42 4.53 -1112.08zm-242.98 3585.47c335.39,31.28 3012.68,41.86 3224.95,-11.03l0.93 -3926.68 -3214.65 -12.77 -11.23 3950.48z"/>
   <path class="fil0" d="M3134.92 10238.02l-17.94 -194.33 208.15 0.08c7.03,199.13 6.18,211.26 -190.21,194.24zm-1510.66 -4341.71l3214.65 12.77 -0.93 3926.68c-212.27,52.89 -2889.56,42.31 -3224.95,11.03l11.23 -3950.48zm-412.49 22.43l2.3 4002.84c-0.45,563.62 56.81,470.03 975.53,469.79l2951.38 -9.13c153.23,-300.8 90.03,-1205.02 89.99,-1589.66l-5.09 -3142.47c-43.32,-303.51 -393.66,-227.22 -846.71,-227.26l-2839.61 0.08c-356.56,-0.12 -333.45,160.62 -327.79,495.81z"/>
   <path class="fil0" d="M8458.56 12951.76l-10.99 83.16 1570.03 0c11.03,-120.98 -8.45,-85.95 46.83,-168.54 -7.8,-162.2 285.2,-1537.34 366.59,-1892.89 9.7,-42.55 24.97,-93.3 25.38,-136.58 0.72,-75.85 3.39,-47.04 -21.14,-93.67l-1358.44 -297.89c-156.82,11.55 -123.69,81.78 -155.05,255.58l-463.2 2250.82z"/>
   <path class="fil4" d="M6321.28 8747.84l111.81 44.73c-41.17,70.88 39.4,34.92 -112.62,67.65l-0.65 1844.28c137.71,9.29 603.3,41.66 660.92,-34.27 37.09,-90.55 79.72,-5094.68 21.17,-5385.75 -765.29,-25.21 -660.55,-62.27 -665.68,394.59l-14.95 3068.77z"/>
   <path class="fil5" d="M4855.47 3178.16l312.96 -4.2 0.2 211.01 -312.28 4.65 -0.89 -211.46zm-472.66 3.72l365.49 -6.06 0.89 208.02 -366.14 2.67 -0.25 -204.63zm-423.07 -7.07l321.08 -0.41 -1.17 213.32 -317.53 2.22 -2.38 -215.13zm1331.17 -309.37l347.31 -1.09 -2.02 206.12 -356.97 -6.59 11.67 -198.44zm-438.43 -5.42l321.45 1.62 -11.72 205.75 -302.9 1.78 -6.83 -209.16zm-452.49 6.02l345.53 -1.49 -4.29 203.33 -357.29 -2.83 16.04 -199.01zm-117.31 -5.13l-13.09 207.1c-118.56,3.15 -209.72,16.08 -306.62,-23.03l-3.36 -186.69 323.06 2.63zm1006.13 -308.8l354.01 -3.27 -10.38 201.8 -350.78 -2.47 7.15 -196.06zm-420.13 -2.63l296.72 -0.04 -14.02 200.71 -292.64 -2.83 9.94 -197.84zm-475.64 1.22l354.54 0.72 -8.41 199.34 -352.97 -2.14 6.83 -197.92zm-417.34 0.2l300.72 -3.48 -13.46 203.09 -294.41 -0.44 7.15 -199.17zm-475.84 -2.79l350.1 7.8 -7.52 192.51 -353.73 1.09 11.15 -201.4zm1783.14 -315.83l359.79 -1.09 3.48 209.56 -368.73 -11.8 5.46 -196.67zm-422.63 -1.25l304.72 -3.11 4.61 211.17 -319.51 -0.16 10.19 -207.9zm-470.64 0.69l358.46 4.16 1.86 202 -369.01 -3.51 8.69 -202.65zm-421.5 -2.18l309.97 -0.69 4.48 210.21 -325.53 3.44 11.07 -212.95zm-473.95 -0.21l354.02 11.88 2.91 193.96 -367.43 1.09 10.5 -206.93zm1784.92 -314.46l367.51 -1.98 -5.33 209.51 -362.62 -10.1 0.44 -197.44zm-423.4 -3.8l314.66 4.16 -5.34 205.6 -310.7 -1.01 1.37 -208.75zm-468.97 2.75l362.67 5.09 -2.83 202.08 -363.92 -3.72 4.09 -203.45zm-424.98 -2.18l317.25 3.15 -3.51 206.36 -313.45 1.58 -0.28 -211.09zm1314 -312.11l375.15 -5.94 -12.89 209.88 -356 -3.6 -6.26 -200.35zm-425.46 -4.97l324.73 1.29 -13.34 207.54 -301.85 0.73 -9.54 -209.56zm-468.97 2.22l376.12 4.73 -16.33 202.61 -354.18 -6.67 -5.62 -200.67zm-422.76 -1.94l326.06 0.6 -15.03 210.48 -307.18 -26.83 -3.84 -184.26zm-474.27 0.16l279.38 -2.46 89.91 17.01 -9.38 189.87 -354.42 3.88 -5.5 -208.31zm1803.18 -309l354.06 0.48 -9.34 200.5 -351.07 -5.53 6.35 -195.45zm-416.77 -0.61l294.09 0.97 -10.18 199.06 -294.58 -0.13 10.67 -199.9zm-474.8 1.22l350.79 -1.9 -9.29 201.2 -350.66 -1.94 9.17 -197.35zm-417.05 -0.28l296.32 -1.98 -11.72 201.2 -296.48 1.22 11.88 -200.43zm-475.37 -0.85l344.85 4.77 -5.62 195.58 -351.19 -4.33 11.96 -196.02zm-364.44 -171.73l-37.18 15.92c17.5,114.76 4.57,59.4 36.57,146.04l235.9 10.75 -8.41 200.47 -178.68 -9.62 35.64 159.16c58.47,-49.42 -67.4,-51.84 129.83,-35.56 36.37,89.58 30.63,80.09 15.44,197.07l-122.44 7.72 7.56 252.11 228.51 -32 4.33 -115.69 364.72 13.86 -2.91 189.36 -187.29 10.26c-0.93,-3.24 -20.93,-53.47 -28.25,-67.04l-35.44 -43.96 -9.9 91.65 -289.28 -8.32c34.63,180.71 119.32,773.82 205.11,898.2 0.04,-3.92 4.57,-80.7 4.97,-83.65 0.73,-5.62 6.38,-12.65 7.07,-25.82 0.69,-13.13 6.02,-16.77 8.89,-25.17 44.41,0.12 135.45,-6.02 172.95,-2.91l129.35 34.35c6.46,-9.17 19.92,10.95 29.9,17.17l-6.3 153.39 -350.05 17.05 16.57 101.83 335.22 9.62 -1.49 186.93c-69.38,10.75 -119.29,14.27 -190.77,14.22 -120.66,-0.08 -93.67,10.71 -160.58,-28.04 -77.87,119.36 -9.09,151.57 -113.15,246.97 36.09,54.95 -63.44,50.87 69.91,40.21l68.45 -156.99 307.91 1.49 68.41 159.62c63.24,-30.72 17.54,11.44 91.36,-137.11 2.51,-5.05 5.7,-17.05 11.28,-23.92l239.5 1.45c76.17,102.56 4.65,55.03 68.41,156.26 159.9,-53.26 14.34,-7.43 102.64,-155.41l331.02 -0.61 -7.07 161.31c265.44,-95 633.12,-96.01 775.76,-269.6l-235.54 -2.39 4.04 -198.36 366.47 -13.01 -15.07 104.13c118.12,-49.18 152.91,-29.9 220.14,-120.06 -34.47,-135.93 -98.56,-16.93 -102.11,-185.43 -4.21,-198.94 -0.28,-28.25 119.69,-166.2 -126.04,-127.08 -129.71,36.12 -121.59,-164.83 7.47,-184.99 59.48,-9.41 94.31,-126.31 4.16,-14.06 18.63,-10.06 26.75,-16.77 -73.79,-94.03 -60.45,-44.45 -81.83,-72.58 -25.25,-33.29 -42.83,88.9 -38.99,-96.01 3.6,-174.48 65.38,-37.98 90.71,-124.7 3.84,-13.09 17.86,-8.88 25.94,-14.63 -75.96,-140.01 20.77,27.88 -70.15,-78.84 -125.11,-146.88 -4.53,-184.95 32.25,-226.81 3.72,-4.28 16.28,-6.42 19.11,-18.22 2.83,-11.92 14.79,-10.71 19.4,-18.27 -8.04,-6.02 -20.29,-10.87 -26.02,-15.19 -242.21,-182.36 3.31,-262.29 28.73,-292.71l-92.09 -73.22c-6.63,-8.77 -38.91,-6.38 -29.75,-93.06 15.72,-148.22 16.09,-51.89 48.98,-88.05 37.34,-41.1 6.38,102.11 46.92,-36.33 4.08,-13.99 18.3,-10.39 26.18,-17.26l-156.14 -223.66c-119.94,72.25 -51.08,234.49 -92.05,139.57 -2.3,-5.37 -5.65,19.44 -10.58,28.17 -160.58,1.45 -333.69,52.53 -364.2,-136.99 -2.66,-16.4 -6.1,-21.5 -12.12,-30.75 -112.7,74.35 -51,229.68 -91.04,139.73 -2.42,-5.38 -6.38,19.36 -11.6,28.57l-239.5 0.04 -51.12 -105.79c-53.86,-87.56 36.29,-4.69 -51.52,-60.9 -4.97,9.13 -9.86,21.21 -12.97,28.37l-55.44 138.76 -307.91 -3.68 -68.41 -164.06c-75.49,48.81 -22.27,11.52 -66.48,86.03 -5.01,8.41 4.41,119.53 -24.81,53.58 -2.38,-5.42 -6.22,19.44 -11.35,27.52l-239.5 0.65c-49.38,-76.7 -30.96,-116.45 -102.64,-169.43 -151.82,173.23 112.22,133.47 -171.05,169.63 -254.78,16.25 -185.88,-7.47 -274.33,-126.8 -129.19,-174.32 105.18,47.44 -33.58,-43.28 -5.98,9.41 -8.32,23.19 -11.96,31.24 -3.52,7.83 -7.6,21.01 -12.25,30.22 -4.85,9.65 -20.65,45.29 -27.52,54.35 -52.49,69.34 47.89,17.05 -60.77,50.71 -123.98,38.35 -168.99,-59.03 -169.64,-59.72z"/>
   <path class="fil3" d="M11672.19 3453.5c178.48,942.73 1425.32,703.31 2149.6,703.31 421.99,0 1030.41,36.24 1430.05,-3.64 318.86,-31.88 783.88,-363.55 759.72,-669.65l-0.16 -91.68 -4320.66 -6.51 -18.55 68.17z"/>
   <path class="fil0" d="M16855.41 11401.29l-55.48 25.66c11.67,347.91 165.83,1167.72 121.75,1436.8 59.32,85.95 38.79,29.95 38.03,171.17l1546.54 0 -4.77 -87.48c-11.92,-470.64 -135.89,-1082.66 -166.68,-1629.59 -53.5,-42.59 7.92,-21.78 -80.17,-19.51l-1399.22 102.96z"/>
   <path class="fil4" d="M23783.86 9891.84l1185.17 574.77 842.63 -1735.25c-165.91,-108.05 -1077.13,-544.38 -1218.43,-567.86 -172.54,543.33 -633.48,1180.24 -809.37,1728.34z"/>
   <path class="fil2" d="M4169.82 3966.97c136.86,-134.88 376.12,-196.22 567.53,-310.62l7.07 -161.31 -331.02 0.61c-88.29,147.98 57.26,102.15 -102.64,155.41 -63.76,-101.22 7.76,-53.7 -68.41,-156.26l-239.5 -1.45c-5.58,6.87 -8.77,18.87 -11.28,23.92 -73.82,148.54 -28.12,106.39 -91.36,137.11l-68.41 -159.62 -307.91 -1.49 -68.45 156.99c-133.35,10.67 -33.82,14.75 -69.91,-40.21l-16.32 -129.63c-62.15,2.99 -238.9,-17.78 -269.57,36.01l-38.02 67.65c-48.94,80.37 31.96,19.15 -50.92,69.5 -182.28,-120.13 170.64,-153.88 -376.37,-160.86l-24.04 47.56c-70.51,131.57 -9.7,77.26 -78.59,114.36 -99.24,-102.56 -19.92,-20.36 -68.5,-161.43l-304.07 14.02 -37.98 125.75c-21.5,-29.58 -20.45,-14.83 -40.85,-72.97 -17.21,-49.06 -5.09,-38.47 -4.04,-72.17l-297.2 6.87c-90.92,147.49 51.44,102.27 -102.64,157.27 -63.4,-89.87 -9.41,-50.92 -49.34,-110.88l-71.08 -70.96c-3.07,-11.72 -15.27,-9.38 -22.5,-14.67 95.2,-201.96 -128.13,211.58 69.91,-76.77 43.6,-63.48 37.94,111.28 38.91,-94.88 0.97,-198.21 -37.86,-41.26 -110.31,-170.44l86.15 -67.8c110.8,-163.21 -65.5,-208.39 -89.67,-240.11 7.15,-6.95 18.95,-12.81 24.32,-17.41 5.26,-4.49 17.06,-12.17 23.12,-17.86 49.58,-46.67 76.9,-44.49 68.86,-131.36 -15.92,-171.54 -60.57,-18.07 -89.38,-124.42 -3.51,-12.97 -16.77,-10.14 -23.8,-16.85 112.42,-177.27 73.99,74.15 111.16,-144.66 26.43,-155.37 -22.22,-113.63 -107.81,-121.23 34.02,-288.43 104.13,60.61 107,-214 1.94,-188.54 -31.68,-17.17 -108.05,-170.16l46.11 -30.95c186.24,-172.51 -33.57,-255.1 -49.22,-276.96l46.55 -34.83c104.94,-99.89 -9.54,29.1 38.63,-38.23 4.89,-6.86 38.59,2.07 28.97,-93.18 -15.4,-152.34 -13.99,-49.5 -47.08,-88.17 -43.84,-51.2 -8,93.75 -43.56,-36.29 -3.6,-13.14 -16.97,-10.3 -23.97,-17.22 74.52,-101.5 36.21,-16.77 85.18,-89.94 35.36,-52.9 9.58,-14.15 38.95,-75.17l21.94 -57.86c123.29,66.6 -76.29,-106.92 35.48,43.32 100.54,135.17 -4.68,122.76 353.05,124.26 0.85,-173.11 -27.56,-100.94 56.21,-170.73 105.18,108.99 2.39,1.58 56.41,91.97l235.78 87.16 -11.39 -61.75c-125.47,-106.23 -175.05,-197.15 -178.68,-412.69l-896.66 -9.38 -2.35 3266.12 2845.56 0z"/>
   <path class="fil6" d="M24322.26 10568.88c-113.51,-19.27 -130.24,-30.91 -206.4,-99.89l69.71 -183.94 214.16 78.27 -77.46 205.55zm-538.4 -677.04c175.9,-548.1 636.84,-1185.01 809.37,-1728.34 141.31,23.48 1052.52,459.81 1218.43,567.86l-842.63 1735.25 -1185.17 -574.77zm1366.81 -1651.61c-69.18,-45.5 -48.81,-16.98 -69.06,-97.67 109.83,-66.27 412.16,100.86 452.13,205.28 -103.12,62.02 -109.87,32.53 -269.64,-51.52 -17.95,-9.42 -109.34,-53.38 -113.43,-56.09zm-537.23 -432.74c-55.48,59.88 -55.12,76.37 -117.43,154.81l-136.66 311.14c-40.77,85.1 -42.67,131.77 -116.05,196.46 -17.62,118.2 -45.78,171.21 -119.81,283.14l-99.24 226.24c-106.8,208.02 -568.79,1094.54 -565.23,1284.42 131.04,197.56 456.05,304.52 683.31,418.83 145.92,54.31 302.13,131.65 446.07,207.9 238.17,126.19 311.11,90.52 419.32,-83.8l753.33 -1579.88c43.16,-126.28 179.9,-360.97 248.43,-495.53 129.03,-253.28 121.14,-309 -112.66,-444.78l-272.92 -146.08c-289.97,-56.85 -754.91,-482.31 -1010.45,-332.88z"/>
   <path class="fil7" d="M12218.75 0l-2377.91 0c39.56,203.54 271.58,666.22 359.27,859.25l2175.55 0.69 -156.9 -859.93z"/>
   <path class="fil7" d="M12487.51 1438.21l-1957.26 -3.11c22.55,245.28 334.34,730.66 413.42,1005.65l1756.91 -5.58c-6.18,-190.12 -133.83,-880.38 -213.07,-996.96z"/>
   <path class="fil2" d="M3300.59 792.73c-39.07,177.31 -54.39,220.43 -161.47,321.01 0.65,0.69 45.66,98.07 169.64,59.72 108.66,-33.66 8.28,18.63 60.77,-50.71 6.87,-9.05 22.67,-44.69 27.52,-54.35 4.65,-9.22 8.73,-22.39 12.25,-30.22 3.63,-8.05 5.98,-21.82 11.96,-31.24 138.76,90.72 -95.6,-131.04 33.58,43.28 88.45,119.32 19.56,143.04 274.33,126.8 283.26,-36.16 19.23,3.6 171.05,-169.63 71.68,52.98 53.26,92.73 102.64,169.43l239.5 -0.65c5.13,-8.08 8.97,-32.93 11.35,-27.52 29.22,65.95 19.8,-45.17 24.81,-53.58 44.21,-74.51 -9.01,-37.21 66.48,-86.03l68.41 164.06 307.91 3.68 55.44 -138.76c3.11,-7.15 8,-19.24 12.97,-28.37 87.81,56.21 -2.34,-26.67 51.52,60.9l51.12 105.79 239.5 -0.04c5.21,-9.21 9.17,-33.95 11.6,-28.57 40.04,89.95 -21.66,-65.38 91.04,-139.73 6.02,9.25 9.46,14.34 12.12,30.75 30.51,189.52 203.62,138.44 364.2,136.99 4.93,-8.73 8.28,-33.54 10.58,-28.17 40.97,94.92 -27.88,-67.32 92.05,-139.57l156.14 223.66c-7.88,6.87 -22.1,3.27 -26.18,17.26 -40.53,138.44 -9.58,-4.77 -46.92,36.33 -32.89,36.16 -33.25,-60.17 -48.98,88.05 -9.17,86.68 23.12,84.29 29.75,93.06l92.09 73.22c-25.42,30.43 -270.94,110.35 -28.73,292.71 5.74,4.33 17.98,9.17 26.02,15.19 -4.61,7.56 -16.57,6.35 -19.4,18.27 -2.83,11.8 -15.4,13.94 -19.11,18.22 -36.77,41.86 -157.35,79.93 -32.25,226.81 90.92,106.72 -5.82,-61.17 70.15,78.84 -8.08,5.74 -22.1,1.54 -25.94,14.63 -25.33,86.72 -87.12,-49.78 -90.71,124.7 -3.84,184.91 13.74,62.72 38.99,96.01 21.38,28.13 8.04,-21.45 81.83,72.58 -8.12,6.71 -22.59,2.71 -26.75,16.77 -34.83,116.9 -86.84,-58.67 -94.31,126.31 -8.12,200.95 -4.45,37.74 121.59,164.83 -119.97,137.96 -123.9,-32.73 -119.69,166.2 3.55,168.5 67.64,49.5 102.11,185.43l211.38 -79.81 3.31 -2369.14 -2715.04 -8.4c-30.79,44.2 -13.61,-38.27 -52.21,93.02z"/>
   <path class="fil2" d="M3828.53 6454.1l640.92 21.05 -10.47 695.87 -624.27 2.71 -5.42 -160.18 -0.04 -171.09 -0.12 -171.05 -0.6 -217.32zm-951.09 2.66l674.33 6.03 -8.89 708.84 -660.11 0.57 -5.33 -715.43zm-914.36 3.27l643.38 -3.31 -15.28 717.09 -624.31 -10.99 -3.8 -702.78zm-111.61 913.35l2719.68 1.42 11.76 -1104.2 -2726.92 -9.29 -4.53 1112.08z"/>
   <path class="fil8" d="M-0 13034.92l8447.56 0 10.99 -83.16c-0.89,-100.45 9.38,-43.48 -42.31,-96.29l-8416.25 0.2 0 179.25z"/>
   <path class="fil8" d="M18501.48 12947.44l4.77 87.48 8110.97 0 0 -179.42 -8039.89 0.45c-90.27,32.61 -65.78,-18.35 -75.85,91.49z"/>
   <path class="fil5" d="M19632.15 6324.07l134.68 16.85c43.76,98.72 43.68,219.26 -1.37,325.37l-130.12 10.58c69.38,77.22 55.28,132.62 53.47,301.53l0.32 1044.84c301.73,-16.41 467.93,-143.04 571.13,-320.48 114.84,-197.44 81.1,-550.24 80.94,-826.07 -0.28,-450.03 94.68,-1097.17 -656.39,-1142.91 0.69,108.25 2.47,215.82 3.76,323.91 0.4,35.39 -0.16,134.52 -7.03,165.23 -19.39,86.51 3.24,43.32 -49.37,101.14z"/>
   <path class="fil4" d="M21466.2 6620.79l-369.65 6.71c-43.52,310.29 -60.57,2861.28 3.27,3066.47l327.63 -2.34c92.61,-205.76 86.19,-2694.83 38.75,-3070.83z"/>
   <path class="fil2" d="M19689.12 8023.24l-0.32 -1044.84c1.81,-168.91 15.92,-224.31 -53.47,-301.53l-82.27 -24.77 6.5 -306.17 72.58 -21.86c52.61,-57.82 29.98,-14.63 49.37,-101.14 6.87,-30.71 7.44,-129.83 7.03,-165.23 -1.29,-108.1 -3.07,-215.66 -3.76,-323.91 -646.82,71.92 -640.88,516.86 -640.55,1142.91 0.32,653.84 -18.59,1045.64 644.88,1146.54z"/>
   <path class="fil9" d="M11414.14 9351.5c411.72,-75.77 1510.5,-18.51 1999.76,-18.47l2.39 -683.27 -1613.02 0.53c-45.9,74.43 43.92,131.24 -158.48,360.04 -51.84,58.55 -79.4,91.89 -123.65,148.58 -55.68,71.28 -91.48,96.54 -107,192.59z"/>
   <path class="fil5" d="M11672.19 3453.5l18.55 -68.17 4320.66 6.51 0.16 91.68c101.67,-101.14 47.24,-208.26 89.95,-349.85l-4474.38 8.53c13.37,131.89 -8.93,220.79 45.05,311.3z"/>
   <polygon class="fil5" points="22560.25,6544.41 24859.53,6550.03 24881.88,6130.39 22561.75,6132.09 "/>
   <polygon class="fil9" points="12877.33,7711.44 14214.4,7718.64 14221.59,7033.35 12884.48,7028.95 "/>
   <path class="fil1" d="M17543.92 284.4c-785.65,-45.58 -1691.25,-4.2 -2490.49,-5.25 -376.76,-0.48 -2251.31,-57.87 -2434.28,28.77 23.39,163.69 10.35,137.06 206.32,136.29 1160.61,-4.57 3953.03,47.56 4679.69,-9.09l38.75 -150.72z"/>
   <path class="fil10" d="M10408.78 10415.09l82.27 56.01 -55.81 272.15c24.53,46.63 21.86,17.82 21.14,93.67 -0.41,43.28 -15.68,94.03 -25.38,136.58 -81.39,355.56 -374.38,1730.69 -366.59,1892.89l1738.65 -8.05c-41.87,-81.18 -623.3,-57.54 -718.26,-57.7 -264.23,-0.45 -529.23,-2.63 -792.85,4.85 6.34,-309.57 284.52,-1370.17 360.6,-1814.13 81.91,-477.47 -0.2,-426.51 -30.91,-556.59 233.93,-174.52 314.66,-166.24 481.35,-391.64 39.12,-52.89 41.62,-52.77 92.41,-112.98l327.79 -401.33c-341.82,1.53 -245.88,-79.85 -618.98,418.27 -346.94,463.2 -432.61,233.6 -495.45,468z"/>
   <path class="fil5" d="M1744.71 2546.77l327.31 0.13 -17.66 204.06 -297.49 -4.08 -12.17 -200.11zm8.69 -314.7c132.42,-1.74 205.68,-19.64 309.44,25.94l0.25 183.37 -315.35 -9.25 5.66 -200.06zm-8.49 -633.2l321.89 -4.44 -7.72 201.19 -306.09 4.61 -8.09 -201.36zm0.45 -318.58l319.39 0.48 1.57 211.7 -322.21 -4.81 1.25 -207.37zm330.9 2207.51c-26.47,-106.23 -7.84,-116.34 -73.26,-183.29l22.79 90.03 -275.5 -10.75 -3.19 -206.41 213.03 -3.88 53.3 82.15 7.11 -187.13 -270.21 1.01 -2.14 -202.81c84.82,-6.83 253.56,-42.14 291.99,26.43 80.05,-127.12 154.85,-604.06 174.44,-782.27l-287.42 -8.53 4.93 -76.73c-4.8,5.25 -64.53,76.05 -66.1,77.02 -54.56,32.89 -45.54,18.19 -117.67,16.73l0.24 -205.96 314.42 -2.26 5.42 117.79c130.56,1.13 62.96,18.55 177.19,-14.99l30.23 -203.25 -96.54 -17.18c-14.71,-175.65 -45.46,-159.73 78.72,-201.59 34.26,69.34 59.08,-99.85 24.32,107.32l51.24 -200.91 -158.32 -16.97 4.85 -192.02 155.98 -12.49 24.56 67.28 52.69 -159.49 -235.78 -87.16c-54.03,-90.39 48.77,17.01 -56.41,-91.97 -83.77,69.79 -55.36,-2.38 -56.21,170.73 -357.73,-1.49 -252.52,10.91 -353.05,-124.26 -111.77,-150.24 87.81,23.28 -35.48,-43.32l-21.94 57.86c-29.37,61.02 -3.6,22.27 -38.95,75.17 -48.98,73.18 -10.67,-11.56 -85.18,89.94 7,6.91 20.37,4.08 23.97,17.22 35.56,130.04 -0.28,-14.91 43.56,36.29 33.09,38.67 31.68,-64.17 47.08,88.17 9.62,95.25 -24.09,86.32 -28.97,93.18 -48.17,67.33 66.31,-61.66 -38.63,38.23l-46.55 34.83c15.64,21.86 235.46,104.45 49.22,276.96l-46.11 30.95c76.37,152.99 109.99,-18.38 108.05,170.16 -2.87,274.62 -72.98,-74.43 -107,214 85.59,7.6 134.24,-34.14 107.81,121.23 -37.18,218.81 1.25,-32.61 -111.16,144.66 7.03,6.71 20.29,3.88 23.8,16.85 28.81,106.35 73.46,-47.12 89.38,124.42 8.04,86.88 -19.27,84.69 -68.86,131.36 -6.06,5.7 -17.86,13.37 -23.12,17.86 -5.37,4.6 -17.17,10.47 -24.32,17.41 24.17,31.72 200.47,76.9 89.67,240.11l-86.15 67.8c72.45,129.19 111.28,-27.76 110.31,170.44 -0.97,206.16 4.68,31.4 -38.91,94.88 -198.04,288.35 25.29,-125.19 -69.91,76.77 7.24,5.3 19.44,2.95 22.5,14.67l71.08 70.96c39.93,59.96 -14.06,21.01 49.34,110.88 154.08,-55 11.72,-9.78 102.64,-157.27l297.2 -6.87z"/>
   <path class="fil8" d="M25623.9 8140.38l272.92 146.08c4.45,-8.32 8.41,-19.92 10.55,-26.31l276.56 -2101.92c-42.96,-27.2 11.92,-6.15 -78.55,-35.84l-198.85 -31.48c-95.81,-10.82 -179.69,-20.85 -272.75,-43.4 28.93,285.85 -0.69,756.85 0.77,1068.68l6.26 941.03c-3.43,114.56 73.5,-39.48 -16.89,83.16z"/>
   <path class="fil4" d="M24963.06 1597.91l18.99 -262.94c-397.13,-20.89 -2825.71,-43.56 -3065.29,17.7 -20.57,307.35 -52.41,242.53 526.56,244.15l2519.74 1.09z"/>
   <path class="fil5" d="M2591.31 3175.61l363.27 7.24 1.33 188.67 -366.78 21.05 2.18 -216.95zm3.88 -130.72l-5.94 -183.33 375.19 -3.44 -11.64 212.18c-132.62,-0.08 -256.72,14.95 -357.62,-25.41zm368.08 -342.09c-112.58,84.25 -205.48,54.18 -376.85,51.8l0.08 -210.6c51.73,0.12 179.45,-7.4 221.93,-3.39 240.35,22.67 78.27,-0.61 153.14,59.52l1.7 102.68zm-615.14 -161.64l129.79 17.26 -4.89 188.46 -135.45 10.79 -7.07 -87.6 -41.17 187.53 179.53 10.02 14.75 194.08 -191.49 12.04 -30.84 -63.44 -52.93 175.57 254.9 -9.29 19.76 196.87 -224.83 18.83c-76.58,-25.58 -25.38,30.19 -54.95,-54.71l-44.09 169.64 304.07 -14.02c48.57,141.07 -30.75,58.88 68.5,161.43 68.89,-37.09 8.08,17.22 78.59,-114.36l24.04 -47.56c547.01,6.99 194.09,40.73 376.37,160.86 82.88,-50.35 1.98,10.87 50.92,-69.5l38.02 -67.65c30.67,-53.78 207.42,-33.01 269.57,-36.01l-46.79 -177.27c5.74,109.34 78.91,89.58 -256.92,87.08l-3.11 -218c152.62,4.08 169.47,-15.44 256.71,44.61 -38.59,-122.39 -5.69,-204.22 -88.09,-284.27l33.57 137.99 -189.67 -0.57 -14.06 -212.1 184.18 28.61c-44.21,-264.88 -63.4,-520.94 -165.76,-774.1l-222.25 -17.22 -16.93 240.92 -170.56 7.19 -21.38 -231.38 -211.66 -5.78 -88.38 435.03z"/>
   <path class="fil1" d="M12694.36 718.46c14.63,170.76 3.19,146.97 199.5,148.02l4075.55 -4.97c249.08,1.82 409.98,73.99 426.19,-158.81 -474.48,-17.98 -4562.55,-33.9 -4701.23,15.76z"/>
   <polygon class="fil5" points="24135.37,3133.14 24984.72,3127.4 24982.21,2276.28 24131.29,2276.89 "/>
   <path class="fil11" d="M4817.04 4341.76c-120.41,1.45 -128.62,25.38 -174.48,-51.77 -69.18,-28.81 -56.85,-2.42 -124.66,-84.7 -46.67,-56.57 -50.79,-84.17 -69.18,-154.28 52.98,-192.46 202.69,-237.96 351.75,-307.71 232.11,-108.58 336.16,-142.32 475.65,62.59l29.74 160.38c-53.99,240.92 -215.01,362.83 -488.82,375.48zm1589.63 -713.13c-36.01,37.13 10.87,0.97 -56.7,53.62 -104.57,81.63 -294.41,172.26 -415.48,110.28 -138.52,-41.38 -189.72,-43.56 -203.05,-178.68 -28.2,-28.08 -46.46,46.71 -44.93,-120.54 2.07,-222.73 543.17,-434.95 716.16,-345.41l67.84 23.8 27.84 123.73c70.43,131.69 17.54,249.16 -91.69,333.21zm-342.14 -551.37l-211.38 79.81c-67.24,90.15 -102.03,70.88 -220.14,120.06 -68.45,97.67 -33.1,58.47 -119.89,109.63 -142.64,173.6 -510.32,174.6 -775.76,269.6 -191.41,114.39 -430.67,175.74 -567.53,310.62 30.99,155.49 26.1,83.53 129.15,151.17 104.45,68.62 51.24,44.33 150.15,156.83 322.54,366.63 1017.07,69.42 964.99,-433.83 -12.89,-112.13 -43.93,-155.29 64.85,-186.81 115.65,-33.54 126.72,40.49 175.25,99.08 97.59,117.83 186.08,163.17 398.63,155.37 475.33,-99.04 590.98,-323.88 541.35,-682.34 -33.78,-244.11 76.37,-106.2 -6.87,-304.76 -154.36,-49.78 -408.41,85.71 -522.8,155.57z"/>
   <polygon class="fil5" points="21870.29,3134.27 22715.46,3126.35 22712.39,2282.51 21868.3,2276.21 "/>
   <polygon class="fil5" points="23032.87,3118.47 23872.88,3126.19 23870.98,2292.53 23028.14,2278.63 "/>
   <path class="fil1" d="M17096.2 1437.37l-4269.42 5.82 16.57 130.6c86.03,40.57 3885.74,52.21 4211.4,13.46l41.46 -149.87z"/>
   <path class="fil1" d="M16944.91 1862.34c-716.36,-2.47 -3908.98,-36.93 -4048.07,19.36 23.72,212.83 70.11,137.11 651.26,136.94l3353.21 -2.1 43.6 -154.2z"/>
   <path class="fil1" d="M12963.11 2326.43c39,164.3 -20.8,118.88 413.83,116.01l3045.37 -0.37c200.99,2.47 292.97,52.62 369.7,-106.88 -56.9,-63.57 1.98,-28.77 -98.72,-53.59l-2803.09 -3.19c-140.78,0.08 -822.27,-42.63 -927.09,48.01z"/>
   <path class="fil2" d="M3843.88 8834.96c-29.41,166.88 -40.29,603.62 6.79,757.29l727.72 -1.78 -3.15 -756.56 -731.35 1.05z"/>
   <polygon class="fil2" points="1853.57,9586.56 2605.33,9581.02 2592.72,8832.09 1848.77,8838.84 "/>
   <polygon class="fil2" points="2843.54,9586.15 3597.91,9581.42 3581.43,8834.8 2842.37,8838.88 "/>
   <polygon class="fil8" points="11821.05,13034.92 14959.73,13034.92 14977.23,12858.46 11803.07,12858.33 "/>
   <path class="fil11" d="M2223.27 710.22c3.63,215.54 53.21,306.46 178.68,412.69 81.66,89.23 118.27,78.63 207.57,142.4 -6.99,-99.08 11.68,-152.22 15.52,-227.58 -123.85,-78.4 -200.1,-142.6 -190.08,-339.47 29.78,-171.7 113.87,-278.21 301.28,-285.93l-8.53 302.17 4.36 297.25 66.35 4.04 3.76 -316.48 -8.04 -291.79c194.08,28.29 256.87,101.99 293.2,289.01 21.74,184.99 -70.91,285.76 -190.81,342.7l13.17 215.7c89.75,-32.25 142.56,-47.56 192.22,-125.27l37.18 -15.92c107.08,-100.58 122.4,-143.69 161.47,-321.01 -12.49,-407.15 -148.38,-425.9 -399.8,-593.27l-280.44 8.77c-218.12,105.95 -368.85,209.6 -397.09,502z"/>
   <path class="fil2" d="M25007.71 10806.65l581.52 69.78c20,-115.61 237.6,-1519.92 171.82,-1649.67l-753.33 1579.88z"/>
   <path class="fil0" d="M2360.65 1344.14l-27.07 154.2 -51.24 200.91 -6.5 111.45 -30.23 203.25c-114.23,33.54 -46.63,16.13 -177.19,14.99l-136.3 -3.31 -4.93 76.73 287.42 8.53c-19.6,178.21 -94.39,655.15 -174.44,782.27l-19.64 175.37 -7.11 187.13 -10.43 48.86c65.42,66.95 46.79,77.06 73.26,183.29 -1.05,33.7 -13.17,23.11 4.04,72.17 20.41,58.14 19.36,43.4 40.85,72.97l37.98 -125.75 44.09 -169.64 5.13 -151.69 52.93 -175.57 28.05 -152.7 41.17 -187.53 17.62 -128.91 88.38 -435.03c48.16,-90.76 -94.11,-34.14 126.48,-77.75 8.24,-1.61 46.75,8.57 99.68,-2.42l-219.62 -11.47c24.37,-155.53 101.22,-598.49 165.68,-710.42l0.81 -38.75c-89.3,-63.77 -125.91,-53.18 -207.57,-142.4l11.39 61.75 -52.69 159.49z"/>
   <path class="fil0" d="M2909.72 1254.92l23.24 158.81 53.78 187.21 72.21 410.51c64.57,151.73 28.08,37.25 -14.06,91.2l-187.86 -7.47 222.25 17.22c102.35,253.16 121.55,509.22 165.76,774.1l-14.02 46.07c82.39,80.05 49.5,161.88 88.09,284.27l3.32 86.32 46.79 177.27 16.32 129.63c104.05,-95.4 35.28,-127.61 113.15,-246.97l17.62 -182.73 -16.57 -101.83 3.23 -84.41c-85.79,-124.38 -170.49,-717.49 -205.11,-898.2l289.28 8.32 9.9 -91.65 -115.16 13.22 -228.51 32 -7.56 -252.11 -22.83 -169.23 -35.64 -159.16 -48.81 -201.6c-32.01,-86.63 -19.07,-31.28 -36.57,-146.04 -49.66,77.71 -102.47,93.02 -192.22,125.27z"/>
   <polygon class="fil9" points="9948.21,6911.97 10640.04,6909.87 10645.33,6209.51 9941.05,6211.33 "/>
   <polygon class="fil9" points="17263.73,6912.89 17959.32,6908.69 17960.73,6215.69 17255.53,6210.07 "/>
   <polygon class="fil9" points="10830.04,6915.2 11525.03,6908.29 11526.56,6217.63 10823.62,6209.71 "/>
   <polygon class="fil9" points="15377.07,6915.73 16071.52,6907.76 16073.67,6220.22 15369.56,6208.94 "/>
   <polygon class="fil9" points="16190.81,6906.07 16881.19,6911 16887.21,6204.66 16185.92,6213.51 "/>
   <polygon class="fil9" points="12641.95,6915.48 13332.65,6907.64 13337.54,6218.4 12633.71,6209.55 "/>
   <polygon class="fil9" points="15412.06,8532.22 16113.18,8524.79 16112.14,7834.49 15416.06,7831.34 "/>
   <polygon class="fil9" points="14569.83,6911 15259,6909.66 15263.11,6211.08 14563.85,6211.73 "/>
   <polygon class="fil9" points="12635.48,8532.75 13336.44,8521.83 13335.32,7835.86 12641.1,7828.19 "/>
   <polygon class="fil9" points="11755.31,6913.06 12444.71,6908.17 12448.27,6219.41 11746.26,6209.47 "/>
   <polygon class="fil9" points="11751.64,8532.02 12447.1,8525.59 12448.11,7835.01 11754.34,7830.08 "/>
   <polygon class="fil9" points="13530.77,6915.48 14221.83,6906.64 14223.29,6222.44 13525.4,6209.02 "/>
   <polygon class="fil9" points="13527.18,8532.75 14223.12,8519.25 14222.64,7836.55 13529.84,7828.99 "/>
   <polygon class="fil9" points="14612.9,9332.59 15298.92,9335.46 15305.71,8640.63 14605.51,8644.19 "/>
   <path class="fil5" d="M22246.24 7339.57l-8.49 154.69c346.75,18.71 2787.65,38.3 2953.97,-19.92l-1.37 -125.22 -2944.11 -9.54z"/>
   <polygon class="fil5" points="2882.77,7172.2 3542.88,7171.63 3551.77,6462.79 2877.44,6456.77 "/>
   <polygon class="fil9" points="13534.77,9330.56 14221.88,9328.63 14226.4,8642.86 13536.43,8650.46 "/>
   <polygon class="fil9" points="17269.47,7715.69 17959.65,7717.06 17949.14,7028.35 17265.39,7038.12 "/>
   <polygon class="fil9" points="15380.06,7708.58 16064.78,7718.84 16071.24,7031.5 15385.19,7030.49 "/>
   <polygon class="fil9" points="14582.24,7718.84 15260.53,7719.65 15245.29,7028.75 14570.8,7028.99 "/>
   <polygon class="fil9" points="11757.98,7706.27 12436.47,7719.33 12445.16,7033.11 11758.66,7030.56 "/>
   <polygon class="fil5" points="1966.87,7162.82 2591.19,7173.82 2606.46,6456.73 1963.08,6460.04 "/>
   <polygon class="fil5" points="3829.13,6671.42 3829.25,6842.46 3829.3,7013.56 3834.71,7173.73 4458.98,7171.03 4469.45,6475.15 3828.53,6454.1 "/>
   <path class="fil9" d="M10640.73 7592.52l16.37 -559.77 -705.69 -5.05 6.47 686.09c102.47,-3.75 280.27,20.33 368.12,-6.79 132.14,-40.81 61.46,-107.2 314.74,-114.48z"/>
   <path class="fil9" d="M16177.56 7701.79c423.16,80.93 263.67,-213.97 532.91,-101.55l152.09 109.18c9.09,6.67 20.09,15.72 31.2,21.91l-16.69 -710.34 -693.85 25.9 -5.65 654.9z"/>
   <path class="fil2" d="M10218.54 10529.52c83.6,-46.19 238.49,-0.73 79.36,135.25 -88.57,-30.55 -129.07,-32.21 -79.36,-135.25zm-1141.74 -84.17l1358.44 297.89 55.81 -272.15 -82.27 -56.01 -1097.29 -247.7 -141.87 -17.69 -92.82 295.67z"/>
   <path class="fil9" d="M15838.61 9344.39c-14.71,-248.79 9.86,-328.8 291.59,-329.57l-15.56 -373.45 -701.77 -5.21 12.4 696.6 413.34 11.64z"/>
   <path class="fil5" d="M24496.02 7962.3c62.31,-78.43 61.95,-94.92 117.43,-154.81 -358.06,14.22 -2213.49,-38.79 -2368.86,27.16l-4.28 102.59c144.5,92.49 1946.59,48.93 2255.71,25.06z"/>
   <path class="fil9" d="M17958.51 8516.78l2.51 -681.32 -688.19 -3.11c-7.32,233.6 24.89,576.91 158.36,695.38 96.5,-202.04 311.26,-163.09 468.25,-52.49 40.21,28.37 -2.63,14.87 59.08,41.54z"/>
   <path class="fil2" d="M16997.08 11255.86c77.74,-128.98 14.1,-71.4 159.37,-81.14l11.32 125.59c-0.69,0.28 -55.6,147.98 -170.68,-44.45zm-33.63 -164.14l-97.58 20.24 -10.47 289.33 1399.22 -102.96 -36.04 -247.91c-252.84,-98.8 -943.98,22.06 -1255.13,41.29z"/>
   <path class="fil2" d="M2565.93 7929.73c-435.12,0.08 -456.09,-61.34 -519.29,75.97 51.96,63.32 -47.56,84.17 243.18,80.57l1507.75 -3.15c415.56,0.45 458.23,55.36 516.09,-77.42 -56.09,-114.76 -69.66,-79.85 -239.82,-78.72l-1507.92 2.75z"/>
   <path class="fil7" d="M14959.73 13034.92l1999.97 0c0.77,-141.23 21.29,-85.22 -38.03,-171.17l-1944.45 -5.29 -17.49 176.46z"/>
   <path class="fil5" d="M24243.3 8469.91c73.38,-64.69 75.28,-111.37 116.05,-196.46 -399.92,71.52 -1912.81,-60.09 -2117.07,40.16l-0.85 102.64c294.21,135.41 1797.53,-87.44 2001.87,53.66z"/>
   <path class="fil5" d="M24024.25 8979.3l99.24 -226.24c-333.05,28 -1722,-58.76 -1882.87,39.52l2.51 102.72c149.63,65.06 681.93,21.7 884.41,21.54 148.26,-0.12 296.52,0.28 444.78,0.25l341.33 3.35c118.76,29.87 38.55,-29.62 110.6,58.88z"/>
   <path class="fil7" d="M10017.59 13034.92l1803.46 0 -17.98 -176.59 -1738.65 8.05c-55.28,82.59 -35.8,47.56 -46.83,168.54z"/>
   <path class="fil9" d="M5731.43 3613.84l340.48 -66.07 334.75 80.86c109.22,-84.05 162.12,-201.52 91.69,-333.21l-0.28 157.67c-211.42,-104.82 -235.5,-102.84 -501.19,-71.16 96.7,-39.27 342.75,-154.76 405.79,-234.04 -172.99,-89.55 -714.1,122.67 -716.16,345.41 -1.53,167.25 16.73,92.46 44.93,120.54z"/>
   <path class="fil9" d="M4448.72 4051.02l460.29 -189.03c-120.98,131.37 -304.36,250.81 -266.46,428.01 45.87,77.14 54.07,53.22 174.48,51.77 118.2,-114.89 20.77,-225.77 252.67,-372.93 52.77,-54.19 128.46,-127.49 206.41,-162.93 -139.49,-204.91 -243.54,-171.17 -475.65,-62.59 -149.06,69.74 -298.78,115.24 -351.75,307.71z"/>
   <polygon class="fil9" points="11526.23,8510.36 11525.06,7837.08 11299.71,7833.44 11186.12,8516.66 "/>
   <path class="fil9" d="M16189.84 9063.06c71.73,147.61 69.46,251.55 253.4,252.63l-3.8 -648.64 -249.64 -3.96 0.04 399.96z"/>
   <path class="fil2" d="M2603.31 8450.48c-105.5,-82.52 -627.5,-50.15 -754.06,-37.71 -0.21,245.73 31.11,191.01 305.73,188.46 139.57,-1.29 335.63,38.39 450.07,-48.13l-1.74 -102.63z"/>
   <polygon class="fil2" points="3832.93,8603.26 4581.66,8591.14 4581.13,8406.59 3827.84,8405.01 "/>
   <path class="fil2" d="M2840.22 8553.11c97.51,75.85 237.84,49.95 375.68,48.45 144.13,-1.54 268.39,11.27 382.95,-29.87l-4.97 -164.21 -752.08 7.35 -1.58 138.27z"/>
   <path class="fil11" d="M2662.67 2025.95c-52.94,10.99 -91.44,0.81 -99.68,2.42 -220.59,43.61 -78.31,-13.01 -126.48,77.75l211.66 5.78 21.38 231.38 170.56 -7.19 16.93 -240.92 187.86 7.47c42.14,-53.94 78.63,60.53 14.06,-91.2l-199.13 20.33 2.75 -244.47 -194.53 -5.5 -5.37 244.15z"/>
   <path class="fil9" d="M11335.71 7735.69l187.05 -18.63 13.78 -674.82 -300.64 -17.17c71.4,155.65 165.71,60.77 135.17,315.02 -18.51,154.28 -57.54,238.49 -35.36,395.6z"/>
   <path class="fil8" d="M2668.04 1781.8l194.53 5.5 -2.75 244.47 199.13 -20.33 -72.21 -410.51 -408.61 -9.62 12.24 232.27c27.2,-22.18 52.62,-17.5 77.66,-41.79z"/>
   <path class="fil5" d="M2662.67 2025.95l5.37 -244.15c-25.05,24.29 -50.47,19.6 -77.66,41.79l-12.24 -232.27 408.61 9.62 -53.78 -187.21 -24.89 76.69 -321.65 1.66 22.3 -188.02c-64.45,111.93 -141.31,554.89 -165.68,710.42l219.62 11.47z"/>
   <path class="fil2" d="M5414.11 3841.14l18.91 132.34 524.46 -2.59c177.75,-24.09 78.15,29.62 95.36,-62.11 -212.55,7.8 -301.04,-37.54 -398.63,-155.37 -48.53,-58.59 -59.6,-132.62 -175.25,-99.08 -108.78,31.52 -77.74,74.67 -64.85,186.81z"/>
   <path class="fil12" d="M4817.04 4341.76c273.81,-12.65 434.83,-134.56 488.82,-375.48l-236.15 2.55c-231.9,147.16 -134.47,258.04 -252.67,372.93z"/>
   <path class="fil2" d="M21096.54 6627.49l369.65 -6.71c-2.66,-84.01 -27.32,-123.32 -59.08,-213.27 -170.2,-482.19 -306.94,183.77 -310.58,219.98z"/>
   <path class="fil4" d="M23019.37 2086.97c123.77,70.8 770.26,59.28 856.37,0 -49.58,-120.45 -111.77,-70.39 -474.52,-71.32 -119.85,-0.28 -364.81,-38.23 -381.86,71.32z"/>
   <path class="fil4" d="M24145.6 2086.97c33.94,21.66 13.82,25.46 77.9,36.69l582.97 3.6c171.41,-3.55 125.67,23.93 173.84,-74.51 -35.24,-22.99 -9.94,-25.09 -75.4,-36.09l-582.33 -2.38c-253.4,1.69 -126.52,24.36 -176.98,72.69z"/>
   <path class="fil4" d="M21885.72 2086.97c122.88,77.1 757.61,46.51 828.57,0 -47.48,-119.16 13.01,-71.48 -407.84,-70.55 -601.48,1.37 -350.59,1.21 -420.73,70.55z"/>
   <path class="fil9" d="M10860.67 7700.82c79.37,-79.73 80.42,-406.27 119.29,-511.69 30.83,-83.53 76.05,-104.46 133.06,-161.43l-287.06 -3.84c17.3,186.37 -33.54,535.29 34.71,676.96z"/>
   <path class="fil2" d="M2798.44 1015.78l98.11 23.44c119.89,-56.94 212.55,-157.71 190.81,-342.7l-285.16 2.78 -3.76 316.48z"/>
   <path class="fil2" d="M2625.04 1037.73l107.05 -25.98 -4.36 -297.25 -292.76 -16.24c-10.02,196.86 66.23,261.07 190.08,339.47z"/>
   <path class="fil0" d="M19635.34 6676.87l130.12 -10.58c45.05,-106.11 45.14,-226.65 1.37,-325.37l-134.68 -16.85 -72.58 21.86 -6.5 306.17 82.27 24.77z"/>
   <path class="fil2" d="M2586.42 2754.59c171.37,2.39 264.26,32.45 376.85,-51.8l-1.7 -102.68c-74.88,-60.13 87.2,-36.85 -153.14,-59.52 -42.47,-4 -170.2,3.51 -221.93,3.39l-0.08 210.6z"/>
   <path class="fil2" d="M2595.18 3044.89c100.9,40.37 224.99,25.34 357.62,25.41l11.64 -212.18 -375.19 3.44 5.94 183.33z"/>
   <polygon class="fil2" points="4383.05,3386.51 4749.19,3383.84 4748.3,3175.81 4382.81,3181.88 "/>
   <polygon class="fil2" points="5282.09,1799.87 5638.1,1803.47 5650.99,1593.59 5275.83,1599.52 "/>
   <polygon class="fil2" points="3489.87,1803.3 3844.28,1799.42 3853.66,1609.55 3763.75,1592.54 3484.37,1595 "/>
   <polygon class="fil2" points="5278.74,2112.31 5641.37,2122.41 5646.7,1912.89 5279.18,1914.87 "/>
   <polygon class="fil2" points="2589.13,3392.56 2955.91,3371.51 2954.57,3182.85 2591.31,3175.61 "/>
   <polygon class="fil2" points="5277.53,2428.95 5646.26,2440.75 5642.78,2231.19 5282.99,2232.28 "/>
   <polygon class="fil2" points="4382.73,2117.27 4746.64,2121 4749.48,1918.91 4386.81,1913.82 "/>
   <polygon class="fil2" points="4387.01,1797.45 4741.19,1804.11 4757.52,1601.51 4381.4,1596.78 "/>
   <polygon class="fil2" points="4381.03,2434.36 4750.04,2437.88 4748.18,2235.87 4389.72,2231.71 "/>
   <polygon class="fil2" points="3483.77,2436.26 3851.2,2435.17 3848.29,2241.21 3494.27,2229.33 "/>
   <polygon class="fil2" points="5279.23,3063.88 5636.2,3070.47 5638.22,2864.35 5290.9,2865.44 "/>
   <polygon class="fil2" points="4383.94,3065.05 4741.23,3067.88 4745.52,2864.55 4399.98,2866.04 "/>
   <path class="fil2" d="M3502.96 2994.1l-3.23 84.41 350.05 -17.05 6.3 -153.39c-9.98,-6.22 -23.44,-26.35 -29.9,-17.17l-129.35 -34.35c-37.5,-3.11 -128.54,3.03 -172.95,2.91 -2.87,8.41 -8.2,12.05 -8.89,25.17 -0.69,13.17 -6.34,20.21 -7.07,25.82 -0.4,2.95 -4.93,79.72 -4.97,83.65z"/>
   <polygon class="fil2" points="4386.2,2748.62 4739.17,2750.76 4747.58,2551.42 4393.03,2550.7 "/>
   <polygon class="fil2" points="5281.65,2748.17 5632.44,2750.64 5642.82,2548.84 5288.81,2552.11 "/>
   <polygon class="fil2" points="4386.81,1483.96 4737.48,1485.9 4746.77,1284.7 4395.98,1286.6 "/>
   <polygon class="fil2" points="5281.21,1481.45 5632.27,1486.99 5641.61,1286.48 5287.55,1286 "/>
   <path class="fil2" d="M3498.68 3363.07c66.92,38.75 39.92,27.96 160.58,28.04 71.48,0.04 121.38,-3.48 190.77,-14.22l1.49 -186.93 -335.22 -9.62 -17.62 182.73z"/>
   <polygon class="fil2" points="3488.7,2749.51 3842.43,2748.42 3849.95,2555.91 3499.85,2548.11 "/>
   <path class="fil2" d="M5513.11 3386.74c86.8,-51.16 51.44,-11.96 119.89,-109.63l15.07 -104.13 -366.47 13.01 -4.04 198.36 235.54 2.39z"/>
   <polygon class="fil2" points="3962.12,3389.94 4279.65,3387.71 4280.82,3174.4 3959.74,3174.81 "/>
   <polygon class="fil2" points="3491.61,1481.49 3842.79,1485.82 3848.41,1290.24 3503.56,1285.47 "/>
   <path class="fil1" d="M2434.97 698.26l292.76 16.24 8.53 -302.17c-187.41,7.72 -271.51,114.24 -301.28,285.93z"/>
   <polygon class="fil2" points="3957.15,2442.49 4282.68,2439.05 4278.19,2228.84 3968.22,2229.53 "/>
   <polygon class="fil2" points="1744.11,1487.67 2066.32,1492.48 2064.75,1280.79 1745.36,1280.3 "/>
   <path class="fil4" d="M2710.59 1141.42c-0.08,-14.59 10.5,-17.1 15.52,-25.79 172.34,-28.4 153.35,152.75 6.38,128.98 -57.1,-84.74 -21.62,-57.34 -21.9,-103.2zm-101.06 123.89c146.52,85.83 153.72,110.76 300.19,-10.38l-13.17 -215.7 -98.11 -23.44 -66.35 -4.04 -107.05 25.98c-3.83,75.36 -22.5,128.5 -15.52,227.58z"/>
   <polygon class="fil2" points="4856.35,3389.62 5168.63,3384.97 5168.43,3173.96 4855.47,3178.16 "/>
   <polygon class="fil2" points="3962.12,2122.73 4275.57,2121.15 4279.08,1914.79 3961.83,1911.64 "/>
   <polygon class="fil2" points="4850.17,2438.93 5169.68,2439.09 5165.07,2227.92 4860.36,2231.03 "/>
   <path class="fil2" d="M3962.97 3044.97c96.9,39.12 188.06,26.18 306.62,23.03l13.09 -207.1 -323.06 -2.63 3.36 186.69z"/>
   <polygon class="fil2" points="4859.91,1804.11 5161.76,1803.38 5175.1,1595.85 4850.37,1594.56 "/>
   <polygon class="fil2" points="4854.41,2119.82 5165.11,2120.83 5170.45,1915.23 4855.79,1911.07 "/>
   <polygon class="fil2" points="4859.31,3069.18 5162.2,3067.4 5173.92,2861.64 4852.47,2860.02 "/>
   <path class="fil2" d="M5731.43 3613.84c13.34,135.12 64.54,137.31 203.05,178.68l139.9 10.71 -2.47 -255.46 -340.48 66.07z"/>
   <path class="fil1" d="M2802.2 699.31l285.16 -2.78c-36.33,-187.02 -99.12,-260.72 -293.2,-289.01l8.04 291.79z"/>
   <path class="fil2" d="M1747.74 2432.14l315.35 9.25 -0.25 -183.37c-103.77,-45.58 -177.03,-27.68 -309.44,-25.94l-5.66 200.06z"/>
   <polygon class="fil2" points="1753,1800.24 2059.09,1795.63 2066.81,1594.44 1744.91,1598.88 "/>
   <polygon class="fil2" points="1756.88,2746.88 2054.36,2750.96 2072.02,2546.9 1744.71,2546.77 "/>
   <path class="fil12" d="M4448.72 4051.02c18.39,70.11 22.5,97.71 69.18,154.28 67.8,82.27 55.48,55.89 124.66,84.7 -37.9,-177.19 145.48,-296.64 266.46,-428.01l-460.29 189.03z"/>
   <polygon class="fil2" points="3962.48,1779.1 4269.67,1805.93 4284.7,1595.44 3958.64,1594.84 "/>
   <path class="fil12" d="M6498.35 3295.42l-27.84 -123.73 -67.84 -23.8c-63.04,79.28 -309.09,194.77 -405.79,234.04 265.69,-31.68 289.77,-33.66 501.19,71.16l0.28 -157.67z"/>
   <path class="fil2" d="M2932.96 1413.73l-23.24 -158.81c-146.48,121.14 -153.67,96.21 -300.19,10.38l-0.81 38.75 -22.3 188.02 321.65 -1.66 24.89 -76.69z"/>
   <polygon class="fil2" points="3968.55,2750.07 4262.96,2750.51 4276.42,2547.42 3975.69,2550.9 "/>
   <polygon class="fil2" points="3967.05,1486.75 4263.53,1485.53 4275.24,1284.34 3978.93,1286.32 "/>
   <path class="fil2" d="M2020.54 3068.53l19.64 -175.37c-38.43,-68.57 -207.17,-33.25 -291.99,-26.43l2.14 202.81 270.21 -1.01z"/>
   <polygon class="fil2" points="4858.74,2747.32 5151.38,2750.16 5165.39,2549.44 4868.68,2549.48 "/>
   <polygon class="fil2" points="4860.11,1485.29 5154.69,1485.41 5164.87,1286.36 4870.78,1285.39 "/>
   <path class="fil2" d="M3481.86 2025.79l115.16 -13.22 35.44 43.96c7.32,13.58 27.32,63.81 28.25,67.04l187.29 -10.26 2.91 -189.36 -364.72 -13.86 -4.33 115.69z"/>
   <path class="fil2" d="M3322.42 3303.14l-3.32 -86.32c-87.24,-60.05 -104.09,-40.53 -256.71,-44.61l3.11 218c335.83,2.51 262.65,22.27 256.92,-87.08z"/>
   <path class="fil2" d="M25081.61 8142.56c20.24,80.69 -0.12,52.17 69.06,97.67 4.09,2.7 95.48,46.67 113.43,56.09 159.77,84.05 166.52,113.54 269.64,51.52 -39.97,-104.41 -342.3,-271.54 -452.13,-205.28z"/>
   <polygon class="fil0" points="2620.36,208.22 2900.79,199.46 2884.71,0 2630.58,0 "/>
   <polygon class="fil2" points="2003,3304.51 2013.43,3255.66 1960.12,3173.51 1747.1,3177.39 1750.29,3383.8 2025.79,3394.55 "/>
   <path class="fil2" d="M2203.23 3337.57c29.58,84.9 -21.62,29.14 54.95,54.71l224.83 -18.83 -19.76 -196.87 -254.9 9.29 -5.13 151.69z"/>
   <path class="fil12" d="M5934.49 3792.52c121.06,61.99 310.91,-28.65 415.48,-110.28 67.56,-52.65 20.69,-16.49 56.7,-53.62l-334.75 -80.86 2.47 255.46 -139.9 -10.71z"/>
   <path class="fil2" d="M24399.72 10363.33l-214.16 -78.27 -69.71 183.94c76.17,68.98 92.9,80.61 206.4,99.89l77.46 -205.55z"/>
   <path class="fil2" d="M1932.12 2025.63l136.3 3.31 -5.42 -117.79 -314.42 2.26 -0.24 205.96c72.12,1.45 63.11,16.16 117.67,-16.73 1.57,-0.97 61.3,-71.76 66.1,-77.02z"/>
   <polygon class="fil2" points="3187.33,1477.29 3366.02,1486.91 3374.42,1286.44 3138.52,1275.69 "/>
   <polygon class="fil2" points="2261.29,3010.3 2292.12,3073.74 2483.62,3061.7 2468.87,2867.62 2289.33,2857.6 "/>
   <path class="fil9" d="M11118.15 8981.85c91.44,-75.61 75.28,-77.66 140.78,-152.99 64.09,-73.67 79.69,-96.74 128.01,-169.88l-221.81 -6.59 -46.99 329.45z"/>
   <path class="fil2" d="M3134.92 10238.02c196.39,17.01 197.24,4.89 190.21,-194.24l-208.15 -0.08 17.94 194.33z"/>
   <polygon class="fil2" points="2333.58,1498.34 2360.65,1344.14 2336.09,1276.86 2180.11,1289.35 2175.26,1481.37 "/>
   <polygon class="fil2" points="3231.01,2932.56 3245.03,2886.49 3060.85,2857.88 3074.91,3069.98 3264.59,3070.55 "/>
   <path class="fil2" d="M3245.8 1805.69l122.44 -7.72c15.19,-116.98 20.93,-107.49 -15.44,-197.07 -197.23,-16.28 -71.36,-13.86 -129.83,35.56l22.83 169.23z"/>
   <polygon class="fil2" points="2330.51,2670.07 2337.58,2757.67 2473.03,2746.88 2477.92,2558.42 2348.13,2541.16 "/>
   <path class="fil11" d="M16997.08 11255.86c115.08,192.42 170,44.73 170.68,44.45l-11.32 -125.59c-145.27,9.74 -81.63,-47.84 -159.37,81.14z"/>
   <path class="fil2" d="M2275.84 1810.7l6.5 -111.45c34.75,-207.17 9.94,-37.98 -24.32,-107.32 -124.18,41.86 -93.43,25.94 -78.72,201.59l96.54 17.18z"/>
   <path class="fil2" d="M5069.71 3968.83l236.15 -2.55 -29.74 -160.38c-77.95,35.44 -153.64,108.74 -206.41,162.93z"/>
   <path class="fil11" d="M10297.9 10664.77c159.13,-135.98 4.24,-181.44 -79.36,-135.25 -49.71,103.04 -9.21,104.7 79.36,135.25z"/>
   <path class="fil11" d="M2726.11 1115.63c-5.01,8.69 -15.6,11.2 -15.52,25.79 0.28,45.86 -35.2,18.46 21.9,103.2 146.97,23.76 165.96,-157.39 -6.38,-128.98z"/>
   <path class="fil8" d="M6320.47 8860.22c152.02,-32.73 71.44,3.23 112.62,-67.65l-111.81 -44.73 -0.81 112.38z"/>
  </g>
 </g>
</svg>
