<?xml version="1.0" encoding="UTF-8"?>
<!DOCTYPE svg PUBLIC "-//W3C//DTD SVG 1.1//EN" "http://www.w3.org/Graphics/SVG/1.1/DTD/svg11.dtd">
<!-- Creator: CorelDRAW -->
<svg xmlns="http://www.w3.org/2000/svg" xml:space="preserve" width="5.3056mm" height="6.1086mm" version="1.1" style="shape-rendering:geometricPrecision; text-rendering:geometricPrecision; image-rendering:optimizeQuality; fill-rule:evenodd; clip-rule:evenodd"
viewBox="0 0 4.49 5.17"
 xmlns:xlink="http://www.w3.org/1999/xlink"
 xmlns:xodm="http://www.corel.com/coreldraw/odm/2003">
 <defs>
  <style type="text/css">
   <![CDATA[
    .fil1 {fill:lime;fill-rule:nonzero}
    .fil0 {fill:lightgrey;fill-rule:nonzero}
    .fil2 {fill:red;fill-rule:nonzero}
   ]]>
  </style>
 </defs>
 <g id="Capa_x0020_1">
  <metadata id="CorelCorpID_0Corel-Layer"/>
  <polygon class="fil0" points="0.01,2.81 0.01,2.36 2.03,2.36 2.03,2.81 "/>
  <polygon class="fil0" points="0.01,4.61 0.01,4.16 2.03,4.16 2.03,4.61 "/>
  <polygon class="fil1" points="3.23,3.38 2.44,2.59 2.75,2.27 3.23,2.75 4.18,1.8 4.49,2.12 3.23,3.38 "/>
  <polygon class="fil1" points="3.23,5.17 2.44,4.38 2.75,4.06 3.23,4.54 4.18,3.59 4.49,3.91 3.23,5.17 "/>
  <polygon class="fil0" points="-0,1.02 -0,0.57 2.02,0.57 2.02,1.02 "/>
  <polygon class="fil2" points="3.45,0.58 4.18,1.3 3.89,1.59 3.46,1.15 3.04,1.59 2.76,1.29 3.45,0.58 "/>
  <polygon class="fil2" points="3.48,1.01 2.75,0.29 3.04,0 3.47,0.43 3.89,0 4.17,0.29 3.48,1.01 "/>
 </g>
</svg>
